<svg width="52" height="52" viewBox="0 0 52 52" fill="none" xmlns="http://www.w3.org/2000/svg">
<g filter="url(#filter0_dd_20005153_1613)">
<rect x="4" width="44" height="44" rx="6" fill="#EFF2FC" shape-rendering="crispEdges"/>
<path d="M32.6667 14.5H19.3333C18.8725 14.5 18.5 14.8733 18.5 15.3333V28.6667C18.5 29.1267 18.8725 29.5 19.3333 29.5H26.5125V23.7H24.5642V21.4292H26.5125V19.7625C26.5125 17.825 27.6958 16.7692 29.4292 16.7692C30.0117 16.7675 30.595 16.7975 31.175 16.8583V18.875H29.9792C29.0392 18.875 28.8558 19.3233 28.8558 19.9792V21.425H31.1033L30.8117 23.6958H28.855V29.5H32.6667C33.1275 29.5 33.5 29.1267 33.5 28.6667V15.3333C33.5 14.8733 33.1275 14.5 32.6667 14.5Z" fill="#33354D"/>
</g>
<defs>
<filter id="filter0_dd_20005153_1613" x="0" y="0" width="52" height="52" filterUnits="userSpaceOnUse" color-interpolation-filters="sRGB">
<feFlood flood-opacity="0" result="BackgroundImageFix"/>
<feColorMatrix in="SourceAlpha" type="matrix" values="0 0 0 0 0 0 0 0 0 0 0 0 0 0 0 0 0 0 127 0" result="hardAlpha"/>
<feOffset dy="4"/>
<feGaussianBlur stdDeviation="2"/>
<feComposite in2="hardAlpha" operator="out"/>
<feColorMatrix type="matrix" values="0 0 0 0 0 0 0 0 0 0 0 0 0 0 0 0 0 0 0.25 0"/>
<feBlend mode="normal" in2="BackgroundImageFix" result="effect1_dropShadow_20005153_1613"/>
<feColorMatrix in="SourceAlpha" type="matrix" values="0 0 0 0 0 0 0 0 0 0 0 0 0 0 0 0 0 0 127 0" result="hardAlpha"/>
<feOffset dy="4"/>
<feGaussianBlur stdDeviation="2"/>
<feComposite in2="hardAlpha" operator="out"/>
<feColorMatrix type="matrix" values="0 0 0 0 0 0 0 0 0 0 0 0 0 0 0 0 0 0 0.25 0"/>
<feBlend mode="normal" in2="effect1_dropShadow_20005153_1613" result="effect2_dropShadow_20005153_1613"/>
<feBlend mode="normal" in="SourceGraphic" in2="effect2_dropShadow_20005153_1613" result="shape"/>
</filter>
</defs>
</svg>
